M48
METRIC,TZ
T1C0.800
T2C1.000
T3C1.520
%
G90
G05
T1
X6400Y85700
X6400Y83200
X6400Y80450
X6400Y37100
X6400Y34600
X6400Y31850
X6650Y88200
X6650Y39600
X15950Y65292
X15950Y16692
X19205Y58091
X19205Y9491
X26497Y87903
X26497Y39303
X30292Y70150
X30292Y21550
X30954Y80873
X30954Y32273
X34518Y78961
X34518Y30361
X34625Y87975
X34625Y39375
X36953Y78852
X36953Y30252
X42328Y82050
X42328Y33450
X42597Y79750
X42597Y31150
X43925Y70925
X43925Y22325
X49643Y70621
X49643Y22021
X51894Y53521
X51894Y4921
X57400Y83600
X57400Y35000
X57600Y81700
X57600Y33100
X58909Y58601
X58909Y10001
X60949Y71772
X60949Y23172
X61300Y81500
X61300Y76600
X61300Y32900
X61300Y28000
X61670Y91719
X61670Y43119
X62822Y89821
X62822Y41221
X69240Y70977
X69240Y22377
T2
X2400Y88150
X2400Y85610
X2400Y83070
X2400Y80530
X2400Y77990
X2400Y75450
X2400Y39550
X2400Y37010
X2400Y34470
X2400Y31930
X2400Y29390
X2400Y26850
X14490Y52920
X14490Y4320
X14500Y58000
X14500Y9400
X38400Y75700
X38400Y27100
X40187Y89501
X40187Y40901
X40940Y75700
X40940Y27100
X42727Y89501
X42727Y40901
X45267Y89501
X45267Y40901
X47807Y89501
X47807Y40901
X50347Y89501
X50347Y40901
X52887Y89501
X52887Y40901
X73405Y82801
X73405Y80261
X73405Y77721
X73405Y75181
X73405Y72641
X73405Y70101
X73405Y34201
X73405Y31661
X73405Y29121
X73405Y26581
X73405Y24041
X73405Y21501
T3
X4500Y58000
X4500Y52920
X4500Y9400
X4500Y4320
X71856Y60969
X71856Y55889
X71856Y12369
X71856Y7289
T0
M30
